<svg xmlns="http://www.w3.org/2000/svg" viewBox="0 0 1024 1024" role="img" aria-label="Layered SVG from image" width="96" height="96"><g id="layer-1-02398f" data-layer-id="layer-1-02398f" data-layer-label="Layer 1" data-layer-color="#02398f" fill="#02398f"><path d="M911 26c0 3 0 3-1 2-2-2-6 0-7 3-1 1-1 3-1 3 0 1 4 5 5 5 1 0 0-1-1-2-2-1-3-6 0-8 1-1 2-1 3 0 2 1 3 6 1 8-1 1-1 1 0 1 0-1 1 0 1 0 1 1 1-2 1-7 0-5 0-9 0-9-1 0-1 2-1 4M951 23c0 1 0 1 1 1 0-1 0-1 0-2-1 0-1 0-1 1M965 31c0 7 0 8 1 4 0-3 0-7 0-9-1-3-1-2-1 5M871 31c0 5 0 8 1 8 1 0 1-3 1-7l0-6 3 6 4 7 3-7 3-6 0 7 1 7 0-9c0-4 0-8-1-8 0 0-2 3-4 7l-3 7-3-7c-1-4-3-7-4-7-1 0-1 3-1 8M989 24c-2 2-6 14-6 15 1 0 1-1 2-2 1-2 2-3 4-3 3 0 4 1 5 3 1 1 1 2 2 2 0-1-5-14-6-15 0-1-1-1-1 0M998 31c0 5 0 8 1 8 1 0 1-3 1-8 0-5 0-8-1-8-1 0-1 3-1 8M957 27c0 0-1 1 0 1 0 0 1 2 1 5 0 5 1 6 3 6 1 0 1 0 0-1-1-1-2-2-2-6 0-3 0-4 2-4 1 0 1 0 0-1-1 0-2-1-2-1 0 0-1 0-2 1M992 32c0 1-1 1-3 1l-3 0 2-4 1-4 2 3c0 2 1 4 1 4M893 28c-1 1-1 1 1 0 2 0 3 0 4 1 1 2 1 2 0 2-1 0-1 0 0 1 0 1 1 2 0 3 0 0 0 2 1 3 1 1 1 1 1-3 0-3-1-5-2-6 0-1-2-2-2-2-1 0-2 0-3 1M919 28c-2 1-3 5-2 7 0 2 2 3 3 3 1 1 3 1 4 0 1-1 1-1-1 0-2 0-5-1-5-4 0-1 1-1 4-1 3 0 4 0 4-1 0-2-3-5-5-5 0 0-1 0-2 1M934 28c0 0 1 3 2 6 0 3 2 5 2 4 1 0 1-1 1-1 0-1 0-1-1-1 0 1-1-1-1-3-1-3-3-8-3-5M940 30c-1 2-1 4-1 5 1 0 1-1 1-3 1-2 1-2 2-1 1 1 1 1 1 0 0-1 0-2-1-3-1-1-1 0-2 2M948 28c-1 0-1 2-2 4 0 2-1 4-1 5-1 0-1 2 0 2 0 0 1-3 2-6 2-5 2-7 1-5M951 33c0 4 1 5 1 3 0-2 0-4 0-6 0-2-1-1-1 3M969 28c-1 1 0 1 0 0 1 0 2 1 3 1 0 1 1 4 1 6l1 5 0-6c0-5-1-7-4-7 0 0-1 0-1 1M924 30c0 2-1 2-3 2-2 0-3 0-3-1 0-1 2-3 4-3 1 0 2 1 2 2M892 33c-1 1-1 2 0 3 0 2 3 3 4 2 1 0 1-1-1-1-2 1-3-4 0-4 1-1 1-1 0-1-1 0-2 1-3 1M943 35c0 1 0 1 1 0 0-1 0-1 0-2-1 0-1 1-1 2M157 114c-9 1-20 6-27 10-6 4-15 13-19 19-4 6-8 13-10 22l-2 8 0 334 0 335 2 8c1 5 4 12 6 16 1 4 5 10 8 14 3 4 8 10 12 13 7 6 19 12 29 15 5 1 16 1 198 2 106 0 192 0 192 0 0-1-25-1-55-1-31-1-61-1-68-2-8 0-15-1-18-2-2 0-5-1-5-1-2 1-6-2-5-3 0-1 1-1 2 0 1 0 0-1-1-2-3-2-5-2-4 1 1 0 1 1 0 1 0 0-1-1-1-2-1-2-1-3-3-2 0 0-2 0-2-1-1-1-1-1-1 0 0 1 0 1-2 0 0-1-2-2-3-1-1 0-1 0 0-2 0-1 0-1-2 1-1 1-2 2-2 1 0-1 0-1-1 0-1 0-1-1-2-2 0-2-2-3-2 0 0 1 0 1-3 0-1-2-2-2-1-1 0 1 0 1-1 0-1 0-2-1-3 0 0 0 0 0 1-1 0-1 1-2 0-2 0-1 0-1 1-1 0 0 1 0 1-1 0-1-1-1-1 0-1 0-1 0-1-1 1 0 0-1 0-2-1-1-1-1-3 0-1 1-2 3-1 3 0 1-1 1-1 1-3 0-3-3-1-5 2-2 2-2 3-1 1 1 1 1 1 0 0-2 0-2 1-1 1 1 1 1 0-1 0-1 0-2 1-2 1 0 1 0 1-1 0-1 0-1-1 0-2 1-6 1-6 0 0 0 1-1 1-1 1-1 1-1 0-1-1 0-1 0 1-2 1-2 1-2 0-2-1 0-2-1-2-5 0-3 1-5 2-4 0 0 0 2 0 4 0 4 0 4 2 4 2 0 3 0 3 0 0 1 0 1 1 1 1-1 1 0 0 0 0 1-1 2-2 2-1 0-1 0 1 2 2 2 2 4 1 4-1 0 0 1 1 2 1 1 2 2 1 2 0 0-1 0-1 1 0 1 0 1 1 1 0-1 1 0 1 1 1 1 1 2 2 2 0 0 1-1 2-2 0-1 0-2-1-5 0-2-1-3-1-1 0 1 0 1-1-1-1-2-2-3-1-3 1-1 1-2 1-2 0-1 0-1-1 0-1 1-1 1-1-2 0-2 0-3 1-2 0 1 1 2 1 2 1 0 1-1 0-1 0-1 0-3 1-4 1-2 1-2 0-2-1 0-2-1-2-2 0-3 0-3 4-3 2 0 3 0 2-1-1 0-2-1-2 0-1 0-1 0-1-1 0 0-2-1-4-2-4-1-4-1-3-2 1-1 3-1 4-1 0 1 1 1 1 0-1 0 1-1 2-1 2 1 4 0 5 0 1-1 1-1-1-2-1 0 0-1 4-1 2 0-29-1-69-1-41 0-75 0-77-1l-3 0 0-6 1-6 288-1 288 0 0-6c0-5 0-6-2-7-1-1-22-1-59-1l-58 0 0-16c0-34-1-56-2-58-1-1-1-1-1 2 0 3 0 3-3 3-3 0-3-1-3-4 0-1 0-1-1 0-2 1-4 0-3-1 0-1 0-1-1 0-1 0-2 1-2 1-1 0-2-1-2-3-1-3-1-3-2-2-1 2-1 2-3 0-2-2-2-2-3 0-1 1-1 1-1 0 0-1-1-4-2-6l-3-5 0 4c-1 2-1 8-1 12-1 5-1 9-1 9-1 0-1 0-2 0-1-1-1-14-1-39 0-21 0-39-1-39 0 0 0 32 0 71l0 71-46 0-47 0 0-31c0-44-1-105-2-99-1 5-3 12-3 10 0-1-1-2-2-2-1-1-2-2-2-2 0 0-1-1-2-1-2-1-3-2-3-2 0-1 0-2-1-2-1 0-3 0-3-1-1-1-1-1-1 0 0 0 0 1-1 1-1 0-1-1-1-1 0-1 0-2-1-2 0-1-1 0 0 1 0 2 0 2-1 2 0-1-1-2-1-3 0-1 0-1-2 0 0 1-2 2-3 1 0 0-1 0-1-1 1 0 0-1-2-3-1-1-3-2-3-1-1 0-2-1-3-2 0-1-1-5-1-9 0-5-1 26-1 69l0 78-50 0-50 0 0-85c0-94 0-88 6-92 2-1 10-1 44-1 24 0 36-1 28-1l-14 0 44-44c46-46 85-86 119-122 28-29 65-69 73-78 4-4 8-8 8-8 1-1 6 2 12 4 6 3 14 7 18 8 13 4 21 5 36 5 15 0 26-1 38-6 9-3 20-8 24-11 2-2 4-4 6-6 1-3 3-9 4-13 2-5 5-23 8-39l5-29 6-6c3-4 6-9 9-14 2-5 4-12 5-15 2-10 1-22-2-30-2-4-4-10-6-13-3-5-6-8-11-11-2-1-2-2 6-11 4-5 14-17 21-26 8-10 15-18 16-19 1-2 1-3-3-9-2-5-6-10-11-15-7-6-10-9-17-12-5-3-12-6-15-7-6-1-26-2-358-2-301 0-354 0-360 2M794 180c11 2 23 5 34 11 4 2 12 7 16 10 5 3 11 9 15 13 4 4 8 11 10 15 5 8 7 20 7 28-1 4-2 9-3 12-1 4-4 9-6 12-2 3-6 8-9 11-2 3-8 7-12 10-4 2-11 6-15 8-5 2-13 4-18 6-14 3-25 4-39 4-12-1-15-1-28-5-5-1-6-2-8-5-1-4-1-11 0-15 1-2 2-3 3-2 7 3 17 5 26 7 10 1 13 1 23 0 6 0 14-2 19-3 4-1 12-4 17-7 7-3 11-6 16-11 11-11 15-22 12-35-3-9-10-19-18-26-7-6-23-14-32-16-10-3-24-4-32-3-11 1-25 4-34 9-4 2-10 6-13 8-12 10-20 22-21 34l0 7-9 0c-9 0-9 0-9-7 0-5 3-15 7-22 5-11 15-22 27-31 2-2 8-5 12-7 13-7 30-11 45-11 5 0 12 0 17 1M805 215c4 1 10 3 13 5 4 2 9 6 12 9 4 3 7 8 8 11 2 2 3 5 3 6 0 0-3-1-7-4-3-3-10-7-13-9-4-1-11-4-16-6-7-2-11-2-21-2-14 0-20 1-32 5-10 4-17 9-24 16-4 4-8 7-9 7-1 0-2-2-2-3 0-2 1-5 2-7 1-3 4-8 7-11 3-3 8-7 12-9 4-2 9-5 13-6 12-4 18-5 33-5 10 1 15 1 21 3M362 220c20 4 34 9 53 19l8 4 3 10c3 10 6 27 7 39 1 10 5 34 6 38 1 2 1 4 0 4 0 0-5 2-11 3-6 1-12 2-13 3-2 0-3-1-6-8-2-5-6-15-10-22-7-14-17-30-26-41-7-10-25-28-34-35-5-4-13-9-17-11-7-4-8-5-6-5 1-1 10-1 20-1 12 1 19 1 26 3M299 226c5 3 12 7 15 9 3 2 10 7 15 11 9 8 23 23 30 34 9 11 17 26 24 40 8 17 11 23 9 24 0 1-8 3-18 6-9 3-18 5-19 6-3 1-3 1-5-2-6-11-13-20-20-26-4-4-11-10-16-13-9-6-20-12-32-16-12-4-29-8-43-9-8-1-17-1-23-1-6 1-16 2-23 4-6 1-12 2-12 2 0-1 3-5 6-9 3-5 11-13 17-19 6-6 15-14 20-17 10-8 26-16 39-21 6-3 23-8 25-8 1 0 6 2 11 5M456 270c5 6 13 15 17 21 8 11 20 34 20 37 0 2-1 2-14 2-8 1-16 1-17 1-3 0-4 0-5-4 0-2-3-15-5-28-2-13-5-27-6-31-1-5-1-8-1-8 0 0 5 5 11 10M732 266c0 2-6 22-18 53-4 12-11 31-15 43-4 13-7 23-7 23-1 0-4-7-9-15-4-9-9-17-10-18l-2-2-4 4c-6 5-36 30-49 40-15 12-48 37-64 48-42 31-78 54-115 75-18 11-44 24-57 28-11 4-20 6-20 5 1-2 9-7 30-20 35-22 84-59 128-96 21-17 35-30 54-47 18-16 47-44 61-58l7-8-15-9c-9-6-16-10-17-11-1 0-2-1-2-1 0 0 5-2 12-4 6-1 24-6 40-12 27-9 63-19 68-19 2 0 3 1 4 1M252 310c18 4 37 11 50 20 8 5 20 17 25 25 4 6 5 8 4 9-1 0-2 1-3 2-2 0-11 4-22 8-21 9-51 24-71 35-7 4-18 10-25 15-13 8-38 26-40 28-1 1-2 2-3 2-2 0-7-12-10-24-2-7-3-16-4-20-1-5-1-14-1-21 0-21 3-38 11-61l4-9 5-3c6-3 18-7 29-8 3 0 14-1 24 0 12 0 19 1 27 2M844 341c-3 18-4 22-6 23-2 1-4 2-6 2-2 0-4-1-4-2-1-1-1-7 1-20 2-10 4-19 4-20 0 0 4-3 8-4 5-3 7-3 7-2 0 1-2 11-4 23M743 328c1 1 3 7 7 19 3 10 5 18 5 19 0 1-1 3-3 4-2 1-3 1-5 0-2-1-3-2-4-3 0-1-3-9-6-18-6-16-8-23-7-24 0-1 10 2 13 3M815 336c-1 4-2 15-3 24-1 10-2 17-3 19 0 1-2 2-3 3-2 0-4 0-6-1-2-1-2-2-2-4 0-1 0-12 0-23l0-22 6-1c4-1 8-2 9-2l3 0-1 7M779 333c0 1 1 10 3 22 2 17 2 21 1 22-2 1-9 1-10 0-1-1-3-11-6-22-2-12-4-22-4-22 0-1 3-1 8-1 4 1 8 1 8 1M501 355c1 4 2 10 3 14 1 9 3 44 1 44-1 0-7-7-16-21-5-7-12-19-16-26-4-8-7-15-7-16 0-1 9-3 25-3l9 0 1 8M450 363c3 5 8 15 11 20 4 5 12 16 18 24 6 8 11 16 12 18 1 1 1 3 1 5-1 2-15 14-33 28-9 7-18 13-19 13-1 0-1-1-3-22-1-13-5-36-9-53-2-9-6-25-9-35 0-1 1-2 2-3 2-1 7-3 12-4 5-1 10-2 11-2 1 0 3 4 6 11M403 373c4 11 9 36 11 50 3 14 5 39 5 52l0 12-3 3c-5 5-36 25-47 31-9 5-21 11-23 11 0 0-3-6-7-13-3-8-6-15-6-16-1-2 0-4 5-10 3-5 7-11 9-14 5-9 10-24 12-35 1-7 2-15 3-27 0-15 0-21-1-29-1-6-2-12-2-13 1-1 12-5 32-10 9-3 9-3 12 8M341 387c1 2 1 9 1 22 0 12 0 21-1 25-2 9-6 21-9 26-3 5-9 12-11 12-2 0-5-4-16-24l-6-12-42 41c-36 37-41 41-43 40-4-2-18-16-25-25-4-4-8-10-10-13l-3-6 3-3c3-3 16-13 27-21 10-7 31-20 44-27 20-11 52-26 82-38 2-1 5-2 6-2 1 0 2 2 3 5M303 481c4 10 13 28 19 41 12 28 19 43 19 44-1 0-6-2-13-5-6-2-15-6-19-7-6-2-9-3-9-2-1 1-2 5-4 9-6 13-14 28-21 39-4 6-10 15-14 20-5 5-12 12-17 17-5 4-13 10-19 14-12 8-25 14-37 19-10 3-29 8-34 8-2 0-1-1 5-4 18-11 35-25 47-39 9-11 20-28 25-39 5-10 13-29 15-37 1-3 2-5 1-5 0-1-9-1-20-1-10 0-19 0-19 0-1-1 86-89 87-89 0 0 4 8 8 17M518 653c0 2 0 5 1 5 0 0 0-1 0-4 0-2 0-4-1-5 0-1-1 1 0 4M556 674c0 1 0 1 1 1 0-1 0-1 0-2-1 0-1 0-1 1M373 709c2 0 3 2 4 3 1 1 1 20 1 55l0 53-48 0-48 0 0-53c0-52 0-53 2-55 1-2 3-4 4-4 2 0 20-1 42-1 34 0 41 0 43 2M669 747c-1 0-1 0-1-1 0-1 0-1 1-1 0 1 0 1 0 2M370 862c0 1 1 2 1 1 1 0 1-1 1-1 0-1 0-1-1-1 0 0-1 1-1 1M363 868c-1 1-1 0-1-2 0-2 0-3 1-2 0 1 0 3 0 4M353 872c0 1 0 1-1 1-1 0-1-1-1-2 0 0 0-1 1 0 1 0 1 1 1 1M357 871c-1 0-1 0-2 0 0-1 0-1 1-1 1 0 1 0 1 1M363 872c1 0 1 0 2 0 0-1-1-1-2-1-1 0-1 0 0 1M356 877c0 1-1 2-2 2-2 0-2 0-1-1 1-1 1-1 0-1-1-1-1-1 0-1 1 0 2-1 1-2 0-1 0-1 1-1 0 1 1 2 1 4M360 874c1 0 1 0 2 0 0-1 0-1-1-1-1 0-1 0-1 1M361 876c0 1 1 1 2 0 0 0 1 0 1-1 0 0-1 0-1 0-1 0-2 0-2 1M356 880c0 1-1 1-1 2-1 0-1 0-1-1 1-1 2-1 2-1M375 884c0 2 0 4 0 5 1 0 1-1 1-1 0-1 0-2 1-2 1-1 1 0 0 1 0 1 0 1 1 0 0-1 1-2 0-2 0-1-1-2-1-3 0-1-1 0-2 2M359 884c0 1 0 1 1 1 1-1 1-1 1-2 0 0 0 0-1 0-1 0-1 0-1 1M367 888c0 1 0 1 1 1 0-1 0-1 0-2-1 0-1 0-1 1M378 889c0 1 0 1 1 1 1-1 1-2 1-2-1 0-1 1-2 1M389 890c0 1 0 1 1 1 0-1 0-1 0-2-1 0-1 0-1 1M375 892c0 1 0 1 1 1 0-1 0-1 0-2-1 0-1 0-1 1M381 897c0 1 0 1-1 1-1 0-1 0-1-1 0-1 0-1 1-1 1 0 1 0 1 1M874 906c1 0 1 0 2 0 0-1 0-1-1-1-1 0-1 0-1 1M866 908c1 0 1 0 2 0 0-1 0-1-1-1-1 0-1 0-1 1M624 909c-3 1-3 1 1 1 5 0 6 0 4-1-1 0-3 0-5 0M854 909c2 0 4 0 6 0 1-1 0-1-3-1-3 0-4 0-3 1M556 910c4 0 10 0 14 0 4 0 1-1-7-1-8 0-11 1-7 1M608 910c1 0 1 0 2 0 0-1 0-1-1-1-1 0-1 0-1 1M612 910c1 0 1 0 2 0 0-1-1-1-2-1-1 0-1 0 0 1" fill-rule="evenodd"/></g><g id="layer-2-f4f6f9" data-layer-id="layer-2-f4f6f9" data-layer-label="Layer 2" data-layer-color="#f4f6f9" fill="#f4f6f9"><path d="M873 10c-3 1-6 2-8 5-5 5-8 12-7 18 1 2 2 6 4 8 1 2 4 5 5 6 2 1 6 2 9 3 3 1 30 1 64 1 54 0 58-1 61-2 2-1 5-4 7-5 4-4 6-13 5-17-1-6-4-10-7-13-2-2-6-3-8-4-6-1-119-1-125 0M913 31c0 5 0 8-1 8-1 0-1-1-1-6 0-3-1-4-3-4-2 0-3 0-4 2 0 2 0 4 0 4 1 1 2 2 4 2 2 0 2 0 1 1 0 1-2 1-3 1-4-1-5-5-3-9 1-2 2-2 5-2 3 0 3 0 3-3 0-2 0-3 1-3 1 0 1 4 1 9M967 25c0 3 0 3 2 3 1-1 2-1 3 0 2 0 2 1 2 6 0 3 0 4-1 3-1-7-1-8-3-8-2 0-3 1-3 5 0 8-2 5-2-3 0-5 0-9 1-9 1 0 1 1 1 3M876 30l3 6 3-6c2-4 4-7 4-7 1 0 1 4 1 8l0 9-1-7 0-6-4 6-3 7-3-7-3-6 0 6c0 3 0 6-1 6-1 0-1-3-1-8 0-6 0-8 1-8 1 0 3 3 4 7M993 30c2 4 3 8 3 8 0 1 0 1-1 1 0 0-1-1-1-2-1-2-2-2-4-2-3 0-4 1-5 2-1 1-1 2-2 2 0 0 1-4 2-8 2-4 4-8 5-8 0 0 2 3 3 7M1000 31c0 5 0 8-1 8-1 0-1-3-1-8 0-5 0-8 1-8 1 0 1 3 1 8M961 27c0 0 1 0 1 1 0 1-1 1-1 1-2 0-2 1-2 4 0 3 0 4 2 4 0 0 1 0 1 1 0 1-1 1-2 1-1 0-2-2-2-5 0-2-1-5-1-5-1-1-1-2 0-3 1-2 1-2 2-1 0 1 1 2 2 2M899 28c0 1 1 3 1 6 0 5 0 5-3 5-2 0-4-1-5-1-2-3 0-6 3-7 4 0 4-2 0-2-3 1-4 0-2-1 1-1 5-1 6 0M925 29c1 1 1 3 1 3 0 2-1 2-4 2-3 0-4 0-4 1 0 1 2 2 4 2 3 0 3 2 0 2-3 0-6-3-6-5 0-4 3-7 6-7 1 0 2 1 3 2M937 32c1 5 1 4 3-1 0-2 1-3 2-3 0 0 1 1 1 3 1 2 2 4 2 4 0 0 1-2 2-4 0-2 1-4 1-4 1 0 1 0 1 1 0 0-1 3-2 6 0 3-2 5-2 5 0 0-2-2-2-5l-2-4-1 4c-1 3-2 5-2 5-1 0-2-3-3-6-1-4-1-6-1-6 1 0 2 3 3 5M953 33c0 3 0 6-1 6-1 0-1-3-1-6 0-3 0-6 1-6 1 0 1 3 1 6M231 112c14 0 36 0 50 0 13 0 2-1-25-1-28 0-39 1-25 1M692 112c3 0 7 0 10 0 2 0 0-1-5-1-5 0-7 1-5 1M739 112c15 0 39 0 54 0 14 0 2-1-27-1-29 0-41 1-27 1M923 157c0 0 1 3 1 5 1 2 2 4 2 3 0-2-1-4-1-5-1-2-2-3-2-3M768 180c-3 0-10 2-14 2-15 4-29 11-41 21-3 3-9 8-11 11-6 7-11 17-14 25 0 3-1 8-1 11 0 3 0 5 1 6 1 1 5 1 9 1l7 0 0-7c1-8 4-16 10-24 3-3 8-8 12-11 4-3 10-7 14-9 4-1 11-4 16-5 7-2 11-2 23-2 12 0 16 0 23 2 10 3 21 7 29 13 3 2 8 7 11 10 4 4 8 9 9 13 3 5 4 8 4 14 0 6 0 8-2 13-2 5-4 8-10 15-7 6-10 9-17 12-5 2-13 5-18 7-13 3-30 4-42 2-5-1-13-2-17-4-7-2-10-3-10-2-1 2-1 15 0 17 0 1 2 2 4 3 5 2 16 4 26 5 27 3 58-5 78-19 7-4 16-13 20-19 2-3 4-8 6-12 1-4 2-8 2-14 0-5-1-11-2-14-2-10-8-20-16-29-5-4-12-11-17-14-4-3-12-7-17-9-5-2-12-5-17-6-7-2-23-4-28-4-1 0-6 1-10 1M770 213c-4 1-11 2-14 3-4 1-11 4-14 6-9 4-19 13-22 19-2 6-3 11 0 11 0 0 3-2 6-5 5-6 15-13 23-16 3-2 10-4 14-5 7-2 11-2 21-2 8 0 14 0 19 2 4 1 11 3 16 5 4 2 10 6 14 9l7 5-2-4c-1-3-4-7-8-11-8-8-16-12-28-15-5-1-12-2-16-2-5-1-12 0-16 0M317 218c-2 0-1 1 6 5 4 2 11 7 15 10 20 15 37 34 53 61 5 9 11 21 17 35 3 7 5 10 6 10 1 0 7-1 13-2 6-2 11-3 12-3 0-1 0-4-1-9-1-4-3-17-5-29-2-21-6-41-9-49-2-3-3-5-10-8-19-10-41-17-63-20-10-2-28-2-34-1M279 224c-12 3-26 9-35 14-11 6-24 15-33 23-10 8-20 19-25 27-2 3-4 6-4 6 0 0 5 0 10-2 7-1 15-2 25-3 22-1 42 2 64 9 5 2 14 6 18 8 5 2 12 7 17 10 4 3 11 9 16 13 7 7 15 18 18 24 1 2 2 3 2 3 1 0 6-2 12-3 7-2 15-5 20-6 4-1 8-3 8-3 1-1-5-17-13-32-8-14-17-29-27-41-4-4-11-13-16-18-5-4-13-11-18-15-5-3-13-8-19-11l-10-6-10 3M445 262c0 0 1 4 2 8 1 4 3 17 5 29 2 12 5 24 5 27l2 5 10-1c5 0 13 0 17-1l7 0-1-3c-1-5-10-21-17-31-7-11-20-27-26-31-2-2-4-3-4-2M727 266c-19 4-40 10-66 18-17 6-36 12-42 13-5 1-10 3-10 3 0 0 7 5 16 10 8 5 16 10 16 11 1 1-1 4-11 14-13 13-46 44-62 58-10 9-32 28-49 42-23 20-52 43-76 61-22 15-35 24-57 38-10 7-20 13-22 14l-2 2 4 0c6-1 17-5 31-11 15-7 32-16 53-28 26-16 48-29 74-47 49-35 93-68 135-104 7-6 13-11 13-11 1 0 5 8 10 18l9 17 2-5c1-2 6-16 11-29 17-51 27-80 27-83 0-2-1-2-4-1M206 308c-14 1-26 4-34 8-3 1-5 3-5 3-1 2-8 22-10 31-1 4-2 11-3 16-2 10-2 37 0 47 3 16 9 35 12 40 1 1 3 0 8-4 9-7 29-22 40-28 26-17 65-36 96-49 12-5 21-9 21-10 0 0-2-4-4-7-5-8-15-18-24-24-13-9-33-17-50-20-8-2-29-4-36-4-2 0-7 1-11 1M841 320c-4 2-7 3-7 4-1 0-2 7-3 16-2 8-3 16-4 19 0 3 0 4 1 5 1 1 3 2 5 2 1 0 3-1 4-2 3-2 3-5 6-22 2-11 4-22 5-23 0-1 0-2-1-2 0 0-3 1-6 3M730 326c0 1 2 8 5 16 3 8 6 17 7 20 1 3 3 7 4 7 1 1 3 1 5 1 1-1 2-2 3-3 1-2 0-5-5-20l-5-18-7-2c-3-1-6-2-7-2 0 0 0 1 0 1M806 331c-3 0-6 1-7 1 0 0 0 11-1 24 0 25 0 25 6 25 5 0 6-2 8-22 1-9 2-20 3-24 0-5 0-6-1-6-1 0-4 1-8 2M764 334c0 2 6 32 8 39 1 3 2 4 4 5 1 0 3 0 5 0 2-1 2-2 2-5 0-2-1-9-1-15-1-6-2-14-3-18 0-3-1-6-1-6-1-1-4-1-8-1-6-1-6-1-6 1M479 348c-5 0-10 1-11 1-2 1-2 1 1 8 4 9 11 22 17 31 7 9 16 21 17 23 1 1 2-1 2-8 1-5 0-14 0-21-1-12-3-26-5-32-1-3-1-3-7-3-3 0-9 1-14 1M434 354c-6 2-11 3-12 3-1 1-2 2-2 3 0 2 1 6 3 11 3 10 7 31 10 50 3 15 4 27 6 41 0 9 0 9 2 8 3-2 27-19 38-29 5-4 10-9 11-10 2-2 2-3 1-6-1-2-5-8-10-14-5-6-12-16-16-22-4-6-10-16-14-24-3-7-6-13-6-13 0 0-5 1-11 2M382 368c-8 2-17 5-19 6-2 0-4 2-4 2 0 1 1 5 1 9 1 4 2 12 3 17 0 11-1 31-4 44-2 11-7 24-12 33-2 4-6 11-9 15l-6 7 2 5c1 2 4 9 7 15l5 11 6-3c15-6 48-27 64-40 3-2 3-2 3-11 0-11-1-29-4-45-2-16-7-42-11-56-2-6-3-11-4-12 0-1-1-2-1-2-1 0-8 2-17 5M336 383c-3 1-14 5-28 11-14 6-49 23-61 30-24 14-55 34-65 44l-5 5 2 4c4 8 14 19 24 30 6 5 11 10 12 10 1 0 20-18 42-41 39-39 41-40 43-38 0 1 5 8 9 16 5 8 9 15 10 16 2 2 2 2 6-1 2-2 5-5 7-9 4-7 7-18 9-29 2-9 2-35 0-42-1-3-1-6-2-6 0-1-2 0-3 0M251 509l-44 44 20 0c13 0 21 0 21 1 0 2-6 18-10 29-6 13-10 21-18 34-8 11-16 21-24 29-11 10-20 17-40 30l-3 2 4-1c9-1 25-5 34-9 5-2 13-5 17-7 12-6 28-18 39-28 5-5 13-13 16-17 4-4 9-12 13-17 6-10 15-27 21-40 1-4 3-7 4-8 0 0 8 3 18 7 10 3 18 6 19 7 1 0 2 0 2 0 0-1-5-12-11-26-23-50-34-74-34-74 0 0-20 20-44 44M696 511c-2 0-4 2-5 3-1 1-1 30-1 154l0 152 41 0 40 0 0-151c0-116 0-153-1-155-3-5-4-5-39-5-27 0-33 0-35 2M563 581c-1 1-3 3-4 4-1 2-1 24-1 119l0 116 46 0 47 0 0-116c0-91 0-116-1-118-3-6-3-6-46-6-30 0-39 0-41 1M421 646l-3 4 0 85 0 85 50 0 49 0 0-85 0-86-2-3-3-2-43-1-44 0-4 3M289 708c-2 1-4 3-5 5-2 3-2 8-2 55l0 52 48 0 48 0 0-53c0-47 0-53-2-55-3-5-5-5-46-5-26 0-39 0-41 1M233 835c-1 0-1 2-1 6l0 6 287 0c247 0 287 0 288-1 1-1 1-4 1-7l0-4-287-1c-158 0-287 0-288 1M108 874c0 0 1 2 2 3 1 0 2 2 2 4 0 1 0 2 1 2 1 0 1 0 1-1 0-1 0-1 1 0 1 0 0-2-2-4-3-5-5-6-5-4M121 889c2 1 4 3 4 3 0 0-1-2-3-3-2-2-4-4-4-4 0 0 1 2 3 4M168 910c0 1 154 1 341 1 187 0 341 0 343 1 2 0 3 0 4-1 1-1-53-1-344-1-189 0-344 0-344 0" fill-rule="evenodd"/></g><g id="layer-3-288ceb" data-layer-id="layer-3-288ceb" data-layer-label="Layer 3" data-layer-color="#288ceb" fill="#288ceb"><path d="M912 31c0 4 1 7 1 4 0-2 0-6 0-9 0-2-1 0-1 5M952 33c0 4 1 5 1 3 0-2 0-4 0-6 0-2-1-1-1 3M410 112c51 0 135 0 186 0 51 0 9-1-93-1-103 0-145 1-93 1M115 136l-2 4 3-3c2-2 3-4 3-4 0 0-1 0-4 3M909 171c-7 8-17 21-23 28-10 12-10 13-8 14 5 3 8 6 11 11 2 3 4 9 6 13 3 8 4 20 2 30-1 3-3 10-5 15-3 5-6 10-9 14l-6 6-5 29c-3 16-6 34-8 39-1 4-3 10-4 13-2 2-4 4-6 6-4 3-15 8-24 11-12 5-23 6-38 6-15 0-23-1-36-5-4-1-12-5-18-8-6-2-11-5-12-4 0 0-4 4-8 8-13 15-77 82-107 114-8 8-40 40-72 72l-57 58 14 0c7 0-5 1-28 1l-42 1 41 0c29 0 43 0 45 1 1 1 3 1 3 1 1 0 1 0 1 1 0 2 0 3 1 3 1-1 2 2 2 6 0 3 0 3-1-1 0-2-1 34-1 81l0 86 1-78c0-43 1-76 1-72 0 8 2 13 4 13 0-1 2 0 3 1 2 2 3 3 2 3 0 1 1 1 1 1 1 1 3 0 3-1 2-1 2-1 2 0 0 1 1 2 1 3 1 0 1 0 1-2-1-1 0-2 0-1 1 0 1 1 1 2 0 0 0 1 1 1 1 0 1-1 1-1 0-1 0-1 1 0 0 1 2 1 3 1 1 0 1 1 1 2 0 0 1 1 3 2 1 0 2 1 2 1 0 0 1 1 2 2 1 0 2 1 2 2 0 2 2-5 3-10 0-3 1 5 1 20 0 14 1-5 1-49 0-79 0-77 5-80 2-1 14-1 42-1 42 0 43 0 45 6 0 2 1 30 2 83 0 44 0 82 0 83 0 2 1 4 2 4 1 0 2-7 2-14 0-3 0-6 1-8l0-3 3 5c1 2 2 5 2 6 0 1 0 1 1 0 1-2 1-2 3 0 2 2 2 2 3 0 1-1 1-1 2 2 0 2 1 3 2 3 0 0 1-1 2-1 1-1 1-1 1 0-1 1 1 2 3 1 1-1 1-1 1 0 0 3 0 4 3 4 3 0 3 0 3-3 0-3 0-3 1-2 1 1 1 16 2 38 0 19 0 36 1 36 0 0 0-68 0-152l0-153 2-2c1-1 3-3 5-3 1-1 16-1 34-1 23 0 33 0 35 1 5 3 5-6 5 158l0 152 17 0c9 0 17 0 18 1 2 1 2 2 2 12 0 7-1 12-1 13-1 1-56 1-287 1-157 0-252 1-210 1 41 0 72 1 70 1-5 0-5 0-4 1 2 1 2 1 1 2-1 0-3 1-5 0-1 0-3 1-2 1 0 1-1 1-1 0-1 0-3 0-4 1-1 1-1 1 3 2 2 1 4 2 4 2 0 1 0 1 1 1 0-1 1 0 2 0 1 1 0 1-2 1-4 0-4 0-4 3 0 1 1 2 2 2 1 0 1 0 0 2-1 1-1 3-1 4 1 0 1 1 0 1 0 0-1-1-1-2-1-1-1 0-1 2 0 3 0 3 1 2 1-1 1-1 1 0 0 0 0 1-1 2-1 0 0 1 1 3 1 2 1 2 1 1 0-2 1-1 1 1 1 3 1 4 1 5-1 1-2 2-2 2-1 0-1-1-2-2 0-1-1-2-1-1-1 0-1 0-1-1 0-1 1-1 1-1 1 0 0-1-1-2-1-1-2-2-1-2 1 0 1-2-1-4-2-2-2-2-1-2 1 0 2-1 2-2 1 0 1-1 0 0-1 0-1 0-1-1 0 0-1 0-3 0-2 0-2 0-2-4 0-2 0-4 0-4-1-1-2 1-2 4 0 4 1 5 2 5 1 0 1 0 0 2-2 1-2 2-1 2 1 1 1 1 0 1 0 0-1 0-1 1 0 1 4 1 6 0 1-1 1-1 1 0 0 1 0 1-1 1-1 0-1 1-1 2 1 2 1 2 0 1-1-1-1-1-1 1 0 1 0 1-1 0-1-1-1-1-3 1-2 2-2 5 1 5 0 0 1 0 1-1-1 0 0-2 1-3 2-1 2-1 3 0 0 1 1 2 0 2 0 1 0 1 1 1 0-1 1-1 1 0 0 1-1 1-1 1-1 0-1 0-1 1 1 0 0 1 0 2-1 1-1 1-1 1 1-1 2 0 3 0 1 1 1 1 1 0-1-1 0-1 1 1 3 1 3 1 3 0 0-3 2-2 2 0 1 1 1 2 2 2 1-1 1-1 1 0 0 1 1 0 2-1 2-2 2-2 2-1-1 2-1 2 0 2 1-1 3 0 3 1 2 1 2 1 2 0 0-1 0-1 1 0 0 1 2 1 2 1 2-1 2 0 3 2 0 1 1 2 1 2 1 0 1-1 0-1-1-3 1-3 4-1 1 1 2 2 1 2-1-1-2-1-2 0-1 1 3 4 5 3 0 0 3 1 5 1 3 1 10 2 18 2 25 1 185 3 202 2 2 0 55 0 118 1 62 0 116 0 119-1 3 0 5-1 4-1 0-1 1-1 3 0 2 0 3 0 3-1-1 0 0-1 1 0 2 0 2 0 2-1-1-1-1-1 1-1 2 1 13-4 22-11 4-3 10-8 13-12 3-4 7-10 8-14 2-4 5-12 6-17l3-8-1-336 0-335-2-9-3-8-13 16M854 209c2 3 5 5 5 5 0 0-2-2-4-5-3-3-6-5-6-5 0 0 2 2 5 5M743 220c-2 1-4 2-4 3 0 0 2-1 4-2 5-2 6-3 4-3 0 0-2 1-4 2M818 220c0 1 2 2 4 3 5 3 11 10 14 14 1 1 2 4 3 5 0 2 0 2-6-2-6-5-16-10-18-10 0 0 3 2 7 4 3 2 9 6 13 8 3 3 6 5 6 4 0-1-1-4-3-6-2-6-11-16-17-18-2-1-3-2-3-2M779 224c2 0 5 0 7 0 2 0 0-1-3-1-4 0-6 1-4 1M805 227c5 2 9 3 9 2 0 0-13-4-15-4-1 0 2 1 6 2M727 232l-5 6 5-6c3-3 6-6 6-6 0 0-1 0-6 6M755 228c-4 2-3 2 2 1 2-1 3-2 2-2-1 0-3 1-4 1M746 232c-2 1-4 2-4 3 0 0 2-1 4-2 5-2 6-3 4-3 0 0-2 1-4 2M734 239c-3 3-7 6-8 8-2 2-2 2 2-1 2-3 6-6 9-7 4-3 5-4 4-4-1 0-3 2-7 4M349 242c0 0 3 4 8 8l8 8-8-8c-4-5-8-8-8-8 0 0 0 0 0 0M717 249c0 2 1 4 2 4 1 0 3 0 3-1 1 0 0-1-1 0-3 0-3 0-3-3l-1-3 0 3M875 255c0 3 1 5 1 3 0-2 0-5 0-7 0-2-1 0-1 4M337 254c2 3 5 5 5 5 0 0 0-1-5-5l-4-4 4 4M858 292l-3 4 3-4c4-3 4-4 4-4 0 0-2 2-4 4M737 303c0 3 1 4 1 2 0-2 0-4 0-6-1-1-1 0-1 4M635 329l-6 7 6-7c4-4 7-7 7-7 0 0 0 0 0 0 0 0-3 3-7 7M332 330c2 1 4 3 4 3 0 0-1-2-3-3-2-2-4-4-4-4 0 0 1 2 3 4M798 343c0 6 1 8 1 5 0-3 0-8 0-11 0-3-1-1-1 6M614 350l-9 10 9-10c6-5 10-10 10-10 0 0 0 0 0 0 0 0-5 4-10 10M754 367c0 1-1 2-3 3-2 0-3 1-2 1 2 0 7-4 6-5-1 0-1 0-1 1M579 383l-3 4 3-4c4-3 4-4 4-4 0 0-2 2-4 4M362 410c0 5 1 7 1 4 0-3 0-7 0-10 0-2-1 0-1 6M505 406c0 6 0 6-2 5-1-1-1-1 0 0 1 2 2 2 3 2 0-1 0-4 0-7l-1-6 0 6M257 476l-39 41 40-40c22-22 40-41 40-41 0 0 0 0 0 0 0 0-19 18-41 40M286 472l-7 9 8-8c4-5 8-8 8-7 1 0 1 0 1-1 0 0 0-1-1-1 0 0-4 4-9 8M180 469c-3 2-4 4-4 4 0 0 2-1 4-4 3-2 4-4 4-4 0 0-2 2-4 4M200 505c5 4 9 8 9 8 0 0-3-4-8-8-5-5-9-9-9-9 0 0 3 4 8 9M251 630l-5 6 5-6c6-5 6-6 6-6 0 0-3 3-6 6M196 645l-2 4 3-3c2-2 3-4 3-4 0 0-1 0-4 3M650 808c0 4 1 6 1 4 0-2 0-6 0-8 0-2-1 0-1 4M231 835c0 1 0 4 0 7l1 6 0-7c0-4 0-6 1-6 1-1 1-1 0-1 0 0-1 1-2 1" fill-rule="evenodd"/></g></svg>